<svg width="210" height="221" viewBox="0 0 210 221" fill="none" xmlns="http://www.w3.org/2000/svg">
<g clip-path="url(#clip0_1_308)">
<path d="M141.54 137.71L103.87 140.38C102.98 140.44 102.2 140.97 101.8 141.77C101.41 142.57 101.47 143.51 101.96 144.25C102.27 144.72 109.46 155.39 121.96 155.39C122.3 155.39 122.65 155.39 123 155.37C138.61 154.64 143.83 141.66 144.05 141.11C144.36 140.31 144.24 139.41 143.73 138.72C143.22 138.03 142.4 137.65 141.54 137.71Z" fill="black"/>
<path d="M80.6401 93.03C76.7801 93.22 73.8 96.5 73.99 100.36L74.7501 115.96C74.9401 119.85 78.2701 122.84 82.1501 122.61C85.9801 122.38 88.9101 119.11 88.7301 115.28L87.9701 99.68C87.7801 95.82 84.5001 92.84 80.6401 93.03Z" fill="black"/>
<path d="M149.46 96.67L150.32 111.72C150.54 115.58 153.85 118.53 157.71 118.31C161.57 118.09 164.52 114.78 164.3 110.92L163.44 95.87C163.22 92.03 159.94 89.08 156.09 89.28C152.22 89.48 149.24 92.79 149.47 96.67H149.46Z" fill="black"/>
<path d="M203.62 90.36C200.83 87.64 198.15 86.1 195.79 84.75C194 83.73 192.46 82.84 190.96 81.51C189.22 79.95 187.1 75.74 186.15 73.24C186.14 73.21 186.12 73.17 186.11 73.14C180.84 57.81 173.51 43.77 164.58 32.13C148.57 11.27 129.15 0.16 108.42 0C108.28 0 108.13 0 107.99 0C85.65 0 64.34 13.17 47.95 37.12C42.28 45.4 37.04 56.95 33.2 65.38C32.31 67.35 31.51 69.09 30.84 70.52C29.88 72.54 28.87 74.32 27.74 75.95L21.06 15.98C24.27 14.61 26.42 11.74 26.24 8.54C26 4.26 21.69 1.03 16.61 1.31C11.53 1.59 7.61002 5.29 7.85002 9.57C8.04002 12.85 10.61 15.51 14.09 16.45L16.67 85.85L16.29 86.08C13.19 87.96 9.98002 89.9 7.71002 92.09C4.65002 95.04 2.40002 99.48 1.21002 104.92C-1.62998 117.95 0.120019 138.77 10.82 143.95C18.87 147.85 25.1 154.71 28.83 163.79C42.17 198.91 71.91 219.98 108.4 220.16C108.56 220.16 108.71 220.16 108.87 220.16C133.9 220.16 156.3 210.08 171.97 191.74C183.26 178.53 190.59 161.68 193.54 142.92C194.26 139.76 197.48 136.44 200.62 133.23C204.14 129.62 207.78 125.89 209.22 121.16C210.85 115.82 209.93 96.53 203.62 90.36ZM173.3 73.25C176.99 83.04 179.72 93.27 181.36 103.35C183.29 115.23 183.53 126.81 182.18 137.69C180.99 142.99 176.46 157.5 161.58 165.93C141.26 177.45 110.38 180.84 88.16 174.01C63.16 166.32 48.04 142.7 47.72 110.85C47.39 78.09 63.77 70.45 80.58 65.42C101.92 59.04 133.9 57.44 153.39 61.79C163.19 63.98 168.32 67.53 170.9 70.13C172.08 71.32 172.83 72.4 173.3 73.25ZM162.85 183.94C149.31 199.79 130.66 208.15 108.89 208.15C108.75 208.15 108.61 208.15 108.46 208.15C77.09 207.99 51.5 189.77 40 159.41C39.96 159.32 39.93 159.22 39.89 159.13C36.77 151.59 32.28 145.21 26.65 140.22C26.61 140.17 26.57 140.13 26.53 140.08C23.64 137.25 24.55 133.1 24.74 131.41C26.16 118.65 22.59 108.63 21.57 106.52C20.4 104.1 19.23 105.15 19.49 106.56C19.78 108.18 20.09 110.5 20.28 112.89C21.07 122.72 19.28 131.47 17.02 133.03C16.74 133.22 16.46 133.27 16.16 133.19C16.12 133.17 16.08 133.15 16.04 133.13C13.44 131.87 10.36 119.2 12.92 107.46C13.86 103.16 15.4 101.31 16.02 100.71C17.32 99.45 19.95 97.87 22.48 96.33L23.24 95.87C32.05 90.52 37.38 84.66 41.66 75.64C42.36 74.17 43.18 72.36 44.1 70.33C47.54 62.75 52.75 51.3 57.82 43.89C71.91 23.31 89.7 12 107.96 12C108.07 12 108.18 12 108.29 12C133.67 12.19 154.63 33.4 167.85 60.64C164.47 58.82 160.16 57.16 154.65 55.93C134.31 51.39 101 53.03 78.82 59.67C59.32 65.5 41.33 75.74 41.68 110.91C42.03 145.51 58.73 171.25 86.35 179.75C94.55 182.27 103.85 183.49 113.4 183.49C131.42 183.49 150.35 179.17 164.49 171.16C169.1 168.55 172.84 165.45 175.87 162.21C172.6 170.28 168.23 177.61 162.81 183.95L162.85 183.94ZM197.75 117.65C197.4 118.8 196.34 120.21 195.01 121.7C194.91 115.06 194.32 108.28 193.21 101.43C192.95 99.84 192.67 98.26 192.37 96.69C193.34 97.32 194.27 98.01 195.19 98.9C196.86 101.11 198.85 113.73 197.76 117.66L197.75 117.65Z" fill="black"/>
</g>
<defs>
<clipPath id="clip0_1_308">
<rect width="209.93" height="220.15" fill="white"/>
</clipPath>
</defs>
</svg>
